<?xml version="1.0" encoding="UTF-8" standalone="no"?>
<!DOCTYPE svg PUBLIC "-//W3C//DTD SVG 1.1//EN" "http://www.w3.org/Graphics/SVG/1.1/DTD/svg11.dtd">
<svg width="24px" height="24px" version="1.1" xmlns="http://www.w3.org/2000/svg" xmlns:xlink="http://www.w3.org/1999/xlink" xml:space="preserve" xmlns:serif="http://www.serif.com/" style="fill-rule:evenodd;clip-rule:evenodd;stroke-linejoin:round;stroke-miterlimit:2;">
    <g transform="matrix(1,0,0,1,-3,-3)">
        <path d="M15,3c-6.627,0 -12,5.373 -12,12c0,6.627 5.373,12 12,12c6.627,0 12,-5.373 12,-12c0,-6.627 -5.373,-12 -12,-12Zm6.707,9.707l-7.56,7.56c-0.188,0.188 -0.442,0.293 -0.707,0.293c-0.265,-0 -0.52,-0.105 -0.707,-0.293l-3.453,-3.453c-0.391,-0.391 -0.391,-1.023 0,-1.414c0.391,-0.391 1.023,-0.391 1.414,-0l2.746,2.746l6.853,-6.853c0.391,-0.391 1.023,-0.391 1.414,-0c0.391,0.391 0.391,1.023 0,1.414Z" style="fill:white;fill-rule:nonzero;"/>
    </g>
</svg>
